<svg xmlns="http://www.w3.org/2000/svg" width="100" height="105" viewBox="0 0 100 105">
  <g fill="none" fill-rule="evenodd">
    <path fill="#FFF" d="M34.1526569,84.2816423 L34.1526569,93.9873826 C34.1526569,96.4887453 34.5682175,100.781401 38.9060719,100.781401 C41.207503,100.781401 43.6594868,99.5119876 43.6594868,94.6225248 L43.6594868,84.2816423 L48.2614686,84.2816423 L48.2614686,104.439785 L44.2247197,104.439785 L44.2247197,102.199798 C42.7535294,103.95537 40.490837,105 37.5484564,105 C30.0789301,105 29.5506751,97.9446063 29.5506751,95.5181713 L29.5506751,84.2816423 L34.1526569,84.2816423 Z M91.5127023,83.7221246 C96.1525424,83.7221246 99.5096032,86.0736321 99.9242834,89.6204964 L96.4915061,90.2173036 C96.1525424,88.0897078 94.2657915,86.7453669 91.5127023,86.6704393 C88.8714271,86.5963829 87.0612732,87.7159409 87.0612732,89.4331774 C87.0612732,90.9265023 88.0790446,91.5616445 92.8703178,92.7561301 C98.2646822,94.0995998 100,95.5929246 100,98.7285583 C100,102.610854 96.9440446,104.999826 91.851666,104.999826 C86.9855566,104.999826 83.7411902,102.76071 83.0245242,98.9899338 L86.4573016,98.4297191 C87.0234149,100.632243 89.1355546,102.014047 92.0779352,102.014047 C94.8319048,102.014047 96.5293644,100.782098 96.5293644,98.803486 C96.5293644,97.1228421 95.7748401,96.6384263 90.7951559,95.2940854 C85.4007915,93.8756882 83.6654737,92.4938835 83.6654737,89.6204964 C83.6654737,86.0736321 86.7971457,83.7221246 91.5127023,83.7221246 Z M74.6357461,78.6821968 L74.6357461,84.2817294 L80.7846348,84.2817294 L80.7846348,87.0070037 L74.6357461,87.0070037 L74.6357461,96.6752802 C74.6357461,98.3175891 74.5600296,99.4380183 75.0504263,100.296201 C75.9563837,101.901917 77.9928069,102.013437 80.7846348,101.565614 L80.7846348,104.439872 C77.1255882,105.186535 73.3908251,104.776176 71.9574931,102.013437 C71.1651105,100.446056 71.2786853,98.9152675 71.2786853,96.8242642 L71.2786853,87.0070037 L67.129242,87.0070037 L67.129242,84.2817294 L71.2786853,84.2817294 L71.2786853,78.6821968 L74.6357461,78.6821968 Z M10.0576837,77.0022996 L12.7503159,77.0027726 L12.7503159,80.6611572 L10.4119069,80.6611572 C8.63873078,80.6611572 7.84634822,81.5942674 7.84634822,82.9752008 L7.84634822,84.2820779 L12.7503159,84.2820779 L12.7503159,87.7906072 L7.84634822,87.7906072 L7.84634822,104.440221 L3.28222466,104.440221 L3.28222466,87.7906072 L0,87.7906072 L0,84.2820779 L3.28222466,84.2820779 L3.28239135,83.5143869 C3.28718705,82.0330829 3.37122763,80.1482277 4.63984011,78.7566016 C6.27667609,76.9209061 8.54469936,76.994688 10.0576837,77.0022996 Z M26.8394061,84.2816423 L26.8394061,88.4627776 C25.6323433,88.1273458 23.8970255,88.238866 22.6142462,88.9480646 C20.7662339,89.9561025 19.9359931,91.8597867 19.9359931,94.2112942 L19.9359931,104.439785 L15.3718695,104.439785 L15.3718695,84.2816423 L19.4077381,84.2816423 L19.4077381,87.4922036 C19.8981348,86.634021 20.5769425,85.8498947 21.4450417,85.3271439 C22.916232,84.3191061 25.0283717,83.982803 26.8394061,84.2816423 Z M57.7182904,84.2816423 L57.7182904,104.439785 L53.1911447,104.439785 L53.1911447,84.2816423 L57.7182904,84.2816423 Z M66.0427094,100.781401 L66.0427094,104.439785 L62.3458046,104.439785 L62.3458046,100.781401 L66.0427094,100.781401 Z M57.7182904,77.0398008 L57.7182904,81.1460085 L53.1911447,81.1460085 L53.1911447,77.0398008 L57.7182904,77.0398008 Z"/>
    <g transform="translate(28)">
      <path fill="#795BCF" d="M21.8540019,40.6388563 C27.4433705,40.6388563 31.9745179,45.1710252 31.9745179,50.7603937 C31.9745179,56.3497623 27.4433705,60.8809097 21.8540019,60.8809097 C16.263612,60.8809097 11.7324645,56.3497623 11.7324645,50.7603937 C11.7324645,45.1710252 16.263612,40.6388563 21.8540019,40.6388563 Z M33.5862622,20.6283654 C39.1756307,20.6283654 43.7067782,25.1605343 43.7067782,30.7499028 C43.7067782,36.3392713 39.1756307,40.8704188 33.5862622,40.8704188 C27.9958722,40.8704188 23.4647248,36.3392713 23.4647248,30.7499028 C23.4647248,25.1605343 27.9958722,20.6283654 33.5862622,20.6283654 Z M10.1215374,20.6283654 C15.710906,20.6283654 20.2420534,25.1605343 20.2420534,30.7499028 C20.2420534,36.3392713 15.710906,40.8704188 10.1215374,40.8704188 C4.53114744,40.8704188 6.64357458e-13,36.3392713 6.64357458e-13,30.7499028 C6.64357458e-13,25.1605343 4.53114744,20.6283654 10.1215374,20.6283654 Z"/>
      <path fill="#00A449" d="M23.5108943,17.3084521 L23.4659505,13.5965067 C23.3770844,6.20121644 29.2984239,0.134831258 36.6937141,0.0449437528 L40.4056595,-3.21520588e-13 L40.4506033,3.7119454 C40.5404908,11.1072356 34.6181299,17.1746423 27.2228397,17.2635083 L23.5108943,17.3084521 Z"/>
      <path fill="#008138" d="M8.97914894,6.28497525 L11.3948757,6.25535323 C16.2069216,6.19815209 20.1548217,10.0510574 20.2130442,14.8631033 L20.2416448,17.2788301 L17.8259181,17.3084521 C13.0148937,17.3656532 9.06699355,13.5127479 9.00877096,8.70070196 L8.97914894,6.28497525 Z"/>
    </g>
  </g>
</svg>
