<svg xmlns="http://www.w3.org/2000/svg" width="180" height="61" viewBox="0 0 180 61">
  <g fill="none" fill-rule="evenodd">
    <path fill="#FFF" d="M103.571653,28.5961777 L103.571653,39.9751188 C103.571653,42.9076987 104.053777,47.9403775 109.086455,47.9403775 C111.756523,47.9403775 114.601258,46.4521264 114.601258,40.7197551 L114.601258,28.5961777 L119.940372,28.5961777 L119.940372,52.2294416 L115.257028,52.2294416 L115.257028,49.6032964 C113.550187,51.661516 110.925063,52.8862332 107.511381,52.8862332 C98.9609547,52.8862332 98.2503139,44.8336478 98.2328836,41.8864559 L98.2325391,28.5961777 L103.571653,28.5961777 Z M170.119459,27.9402032 C175.502495,27.9402032 179.397279,30.6970939 179.878382,34.8554125 L175.895753,35.555105 C175.502495,33.0607267 173.31353,31.484631 170.119459,31.3967864 C167.055112,31.3099633 164.955013,32.6225251 164.955013,34.635801 C164.955013,36.3865644 166.135808,37.1312007 171.694533,38.5316072 C177.952951,40.1066814 179.966226,41.8574449 179.966226,45.5336396 C179.966226,50.085216 176.420777,52.8860289 170.512717,52.8860289 C164.867168,52.8860289 161.103129,50.2609052 160.27167,45.8400742 L164.254299,45.1832826 C164.911091,47.7655055 167.361547,49.3855235 170.775229,49.3855235 C173.970321,49.3855235 175.939675,47.9411947 175.939675,45.6214842 C175.939675,43.6511092 175.064293,43.0831836 169.286978,41.5070879 C163.02856,39.844169 161.015285,38.224151 161.015285,34.8554125 C161.015285,30.6970939 164.648578,27.9402032 170.119459,27.9402032 Z M150.539202,22.0314276 L150.539202,28.5962799 L157.673001,28.5962799 L157.673001,31.7913721 L150.539202,31.7913721 L150.539202,43.1263909 C150.539202,45.0518221 150.451358,46.3654054 151.020305,47.3715326 C152.071376,49.254063 154.433987,49.3848085 157.673001,48.8597837 L157.673001,52.2295437 C153.42786,53.1049255 149.094873,52.623823 147.431955,49.3848085 C146.512651,47.5472218 146.644417,45.7525361 146.644417,43.3010586 L146.644417,31.7913721 L141.830329,31.7913721 L141.830329,28.5962799 L146.644417,28.5962799 L146.644417,22.0314276 L150.539202,22.0314276 Z M75.8085686,20.0624827 L78.7411485,20.0624827 L78.7411485,24.3515467 L76.0281801,24.3515467 C73.970982,24.3515467 73.051678,25.4455185 73.051678,27.0645151 L73.051678,28.5966885 L78.7411485,28.5966885 L78.7411485,32.7100633 L73.051678,32.7100633 L73.051678,52.2299523 L67.7564867,52.2299523 L67.7564867,32.7100633 L63.9485251,32.7100633 L63.9485251,28.5966885 L67.7564867,28.5966885 L67.7564867,28.2024092 C67.7564867,26.4077234 67.7125644,23.9133451 69.331561,22.1186594 C71.3009145,19.8867935 74.0578052,20.0624827 75.8085686,20.0624827 Z M95.0869871,28.5961777 L95.0869871,33.4981111 C93.6865806,33.1048533 91.6733048,33.2355988 90.1850537,34.0670582 C88.0410324,35.2488746 87.0778061,37.4807405 87.0778061,40.2376312 L87.0778061,52.2294416 L81.7826148,52.2294416 L81.7826148,28.5961777 L86.4649367,28.5961777 L86.4649367,32.360217 C87.0338838,31.3540898 87.8214209,30.4347858 88.8285695,29.8219165 C90.5354107,28.6401 92.9858667,28.2458208 95.0869871,28.5961777 Z M130.911959,28.5961777 L130.911959,52.2294416 L125.659669,52.2294416 L125.659669,28.5961777 L130.911959,28.5961777 Z M140.569759,47.9403775 L140.569759,52.2294416 L136.280694,52.2294416 L136.280694,47.9403775 L140.569759,47.9403775 Z M130.911959,20.1058943 L130.911959,24.9199831 L125.659669,24.9199831 L125.659669,20.1058943 L130.911959,20.1058943 Z"/>
    <path fill="#795BCF" d="M21.8537977,40.6387542 C27.4431662,40.6387542 31.9743136,45.1709231 31.9743136,50.7602916 C31.9743136,56.3496601 27.4431662,60.8808076 21.8537977,60.8808076 C16.2634077,60.8808076 11.7322602,56.3496601 11.7322602,50.7602916 C11.7322602,45.1709231 16.2634077,40.6387542 21.8537977,40.6387542 Z M33.5860579,20.6282632 C39.1754264,20.6282632 43.7065739,25.1604321 43.7065739,30.7498007 C43.7065739,36.3391692 39.1754264,40.8703166 33.5860579,40.8703166 C27.9956679,40.8703166 23.4645205,36.3391692 23.4645205,30.7498007 C23.4645205,25.1604321 27.9956679,20.6282632 33.5860579,20.6282632 Z M10.1213331,20.6282632 C15.7107017,20.6282632 20.2418491,25.1604321 20.2418491,30.7498007 C20.2418491,36.3391692 15.7107017,40.8703166 10.1213331,40.8703166 C4.53094315,40.8703166 -0.000204289786,36.3391692 -0.000204289786,30.7498007 C-0.000204289786,25.1604321 4.53094315,20.6282632 10.1213331,20.6282632 Z"/>
    <path fill="#00A449" d="M23.51069,17.3083499 L23.4657462,13.5964045 C23.3768802,6.20111429 29.2982196,0.134729114 36.6935098,0.0448416079 L40.4054552,-0.000102144892 L40.450399,3.71184326 C40.5402865,11.1071335 34.6179256,17.1745401 27.2226354,17.2634062 L23.51069,17.3083499 Z"/>
    <path fill="#008138" d="M8.97894465,6.28487311 L11.3946714,6.25525109 C16.2067173,6.19804995 20.1546174,10.0509553 20.21284,14.8630012 L20.2414405,17.2787279 L17.8257138,17.3083499 C13.0146894,17.3655511 9.06678926,13.5126457 9.00856667,8.70059982 L8.97894465,6.28487311 Z"/>
  </g>
</svg>
