<svg xmlns="http://www.w3.org/2000/svg" width="60" height="83" viewBox="0 0 60 83">
  <g fill="none" fill-rule="evenodd">
    <path fill="#795BCF" d="M29.8009117,55.4166222 C37.4227779,55.4166222 43.6016154,61.5968525 43.6016154,69.2187187 C43.6016154,76.8405849 37.4227779,83.0194223 29.8009117,83.0194223 C22.1776527,83.0194223 15.9988153,76.8405849 15.9988153,69.2187187 C15.9988153,61.5968525 22.1776527,55.4166222 29.8009117,55.4166222 Z M45.7994484,28.1295892 C53.4213146,28.1295892 59.600152,34.3098195 59.600152,41.9316856 C59.600152,49.5535518 53.4213146,55.7323892 45.7994484,55.7323892 C38.1761894,55.7323892 31.997352,49.5535518 31.997352,41.9316856 C31.997352,34.3098195 38.1761894,28.1295892 45.7994484,28.1295892 Z M13.8020965,28.1295892 C21.4239627,28.1295892 27.6028001,34.3098195 27.6028001,41.9316856 C27.6028001,49.5535518 21.4239627,55.7323892 13.8020965,55.7323892 C6.17883742,55.7323892 9.05941988e-13,49.5535518 9.05941988e-13,41.9316856 C9.05941988e-13,34.3098195 6.17883742,28.1295892 13.8020965,28.1295892 Z"/>
    <path fill="#00A449" d="M32.0603103,23.6024347 L31.9990234,18.5406909 C31.8778424,8.45620424 39.9523962,0.183860807 50.0368829,0.0612869357 L55.0986266,-4.38437165e-13 L55.1599135,5.06174373 C55.2824874,15.1462304 47.2065408,23.4199667 37.1220541,23.5411477 L32.0603103,23.6024347 Z"/>
    <path fill="#008138" d="M12.244294,8.5704208 L15.5384668,8.53002714 C22.1003476,8.45202558 27.4838477,13.7059874 27.5632422,20.2678682 L27.6022429,23.562041 L24.3080701,23.6024347 C17.7475823,23.6804362 12.3640821,18.4264744 12.2846877,11.8645936 L12.244294,8.5704208 Z"/>
  </g>
</svg>
